<?xml version="1.0" standalone="no"?><svg xmlns="http://www.w3.org/2000/svg" viewBox="0 0 1440 320"><path fill="#fc1503" fill-opacity="1" d="M0,192L10,202.7C20,213,40,235,60,245.3C80,256,100,256,120,218.7C140,181,160,107,180,64C200,21,220,11,240,53.3C260,96,280,192,300,224C320,256,340,224,360,218.7C380,213,400,235,420,224C440,213,460,171,480,128C500,85,520,43,540,58.7C560,75,580,149,600,197.3C620,245,640,267,660,240C680,213,700,139,720,112C740,85,760,107,780,138.7C800,171,820,213,840,208C860,203,880,149,900,133.3C920,117,940,139,960,144C980,149,1000,139,1020,144C1040,149,1060,171,1080,181.3C1100,192,1120,192,1140,176C1160,160,1180,128,1200,138.7C1220,149,1240,203,1260,192C1280,181,1300,107,1320,85.3C1340,64,1360,96,1380,90.7C1400,85,1420,43,1430,21.3L1440,0L1440,320L1430,320C1420,320,1400,320,1380,320C1360,320,1340,320,1320,320C1300,320,1280,320,1260,320C1240,320,1220,320,1200,320C1180,320,1160,320,1140,320C1120,320,1100,320,1080,320C1060,320,1040,320,1020,320C1000,320,980,320,960,320C940,320,920,320,900,320C880,320,860,320,840,320C820,320,800,320,780,320C760,320,740,320,720,320C700,320,680,320,660,320C640,320,620,320,600,320C580,320,560,320,540,320C520,320,500,320,480,320C460,320,440,320,420,320C400,320,380,320,360,320C340,320,320,320,300,320C280,320,260,320,240,320C220,320,200,320,180,320C160,320,140,320,120,320C100,320,80,320,60,320C40,320,20,320,10,320L0,320Z"></path></svg>